<svg xmlns:xlink="http://www.w3.org/1999/xlink" xmlns="http://www.w3.org/2000/svg" viewBox="0 0 18 18" width="18">  <rect fill="currentColor" opacity="0" />
    <rect height="3" width="5" x="1" y="10" />
    <rect height="3" width="5" x="1" y="6" />
    <rect height="3" width="10" x="7" y="10" />
    <rect height="3" width="10" x="7" y="6" />
    <path d="M6,17H1.5a.5.5,0,0,1-.5-.5V14H6Z" />
    <path d="M16.5,17H7V14H17v2.5A.5.5,0,0,1,16.5,17Z" />
    <path d="M16.5,1H1.5a.5.5,0,0,0-.5.5V5H17V1.5A.5.5,0,0,0,16.5,1Z" />
</svg>