<svg xmlns:xlink="http://www.w3.org/1999/xlink" xmlns="http://www.w3.org/2000/svg" viewBox="0 0 18 18" width="18">
  <rect fill="currentColor" opacity="0" />
  <path d="M15.5,2H2.5a.5.5,0,0,0-.5.5v13a.5.5,0,0,0,.5.5h13a.5.5,0,0,0,.5-.5V2.5A.5.5,0,0,0,15.5,2ZM15,15H3V3H15Z" />
  <path d="M14,7.816V4H10.184A5.14151,5.14151,0,0,1,14,7.816Z" />
  <path d="M7.816,4H4V7.816A5.14151,5.14151,0,0,1,7.816,4Z" />
  <path d="M4,10.184V14H7.816A5.14151,5.14151,0,0,1,4,10.184Z" />
  <path d="M10.184,14H14V10.184A5.14151,5.14151,0,0,1,10.184,14Z" />
</svg>