<svg xmlns:xlink="http://www.w3.org/1999/xlink" xmlns="http://www.w3.org/2000/svg" viewBox="0 0 18 18" width="18">
  <rect fill="currentColor" opacity="0" />
  <rect height="3" width="1" x="2" y="9" />
  <path d="M3,15V14H2v1.5555A.4445.4445,0,0,0,2.4445,16H4V15Z" />
  <rect height="1" width="3" x="6" y="15" />
  <rect height="3" width="1" x="15" y="6" />
  <path d="M15.5555,2H14V3h1V4h1V2.4445A.4445.4445,0,0,0,15.5555,2Z" />
  <rect height="1" width="3" x="9" y="2" />
  <rect height="21.927" rx="0.409" transform="translate(-3.72777 9.00002) rotate(-45)" width="1.2275" x="8.38635" y="-1.96368" />
  <polygon points="16 13.719 16 11 15 11 15 12.719 16 13.719" />
  <polygon points="12.718 15 11 15 11 16 13.718 16 12.718 15" />
  <polygon points="2 4.281 2 7 3 7 3 5.281 2 4.281" />
  <polygon points="5.281 3 7 3 7 2 4.281 2 5.281 3" />
</svg>