<svg xmlns:xlink="http://www.w3.org/1999/xlink" xmlns="http://www.w3.org/2000/svg" viewBox="0 0 18 18" width="18">
  <rect fill="currentColor" opacity="0" />
  <polygon points="10 1 10 6 15 6 10 1" />
  <path d="M9.5,7A.5.5,0,0,1,9,6.5V1H7V8.75A.25.25,0,0,1,6.75,9h-.5A.25.25,0,0,1,6,8.75V1H3.5a.5.5,0,0,0-.5.5v15a.5.5,0,0,0,.5.5H6V15.25A.25.25,0,0,1,6.25,15h.5a.25.25,0,0,1,.25.25V17h7.5a.5.5,0,0,0,.5-.5V7ZM9,13.5a.5.5,0,0,1-.5.5h-4a.5.5,0,0,1-.5-.5v-5A.5.5,0,0,1,4.5,8H5v2H8V8h.5a.5.5,0,0,1,.5.5Z" />
  <circle cx="6.5" cy="12" r="1.093" />
</svg>