<svg xmlns:xlink="http://www.w3.org/1999/xlink" xmlns="http://www.w3.org/2000/svg" width="14" height="14"
  viewBox="0 0 14 14">
  <rect opacity="0" width="14" height="14" />
  <path
    d="M6.66089,1.00256.15556,12.64356a.38889.38889,0,0,0,.33911.57866H13.50533a.3889.3889,0,0,0,.33912-.57866L7.33911,1.00256a.38889.38889,0,0,0-.67822,0ZM7.77778,11.47222a.19445.19445,0,0,1-.19445.19445H6.41667a.19445.19445,0,0,1-.19445-.19445V10.30556a.19445.19445,0,0,1,.19445-.19445H7.58333a.19445.19445,0,0,1,.19445.19445Zm0-2.33333a.19444.19444,0,0,1-.19445.19444H6.41667a.19444.19444,0,0,1-.19445-.19444V4.47222a.19444.19444,0,0,1,.19445-.19444H7.58333a.19444.19444,0,0,1,.19445.19444Z" />
</svg>