<svg xmlns:xlink="http://www.w3.org/1999/xlink" xmlns="http://www.w3.org/2000/svg" width="14" height="14" viewBox="0 0 14 14">
  
    <rect id="Frame" width="14" height="14" fill="red" opacity="0"/>
    <path d="M13.16162,7.04333C13.16235,7.02863,13.17,7.01477,13.17,7s-.00769-.02863-.00842-.04333a.94155.94155,0,0,0-.06647-.32221.93069.93069,0,0,0-.11865-.17889.89546.89546,0,0,0-.08392-.12647L8.82617,2.26172a.94949.94949,0,1,0-1.34375,1.3418L9.92908,6.05078h-8.308a.94922.94922,0,1,0,0,1.89844h8.308L7.48242,10.39648a.94949.94949,0,0,0,1.34375,1.3418L12.89258,7.6709a.89546.89546,0,0,0,.08392-.12647.93069.93069,0,0,0,.11865-.17889A.94155.94155,0,0,0,13.16162,7.04333Z"/>

</svg>