<svg xmlns:xlink="http://www.w3.org/1999/xlink" xmlns="http://www.w3.org/2000/svg" width="20" height="20" viewBox="0 0 20 20">
  
    <rect id="Frame" width="20" height="20" fill="red" opacity="0"/>
    <path d="M18.42316,10.40973a1.07,1.07,0,0,0,.076-.37659c.00036-.01166.00671-.02142.00671-.03314s-.00629-.02142-.00665-.033a1.04509,1.04509,0,0,0-.30841-.72638L12.20508,3.25391A1.07309,1.07309,0,0,0,10.6875,4.77148l4.1546,4.15528H2.063a1.07324,1.07324,0,1,0,0,2.14648H14.8421l-4.1546,4.15528a1.07309,1.07309,0,1,0,1.51758,1.51757L18.1908,10.7594A1.07359,1.07359,0,0,0,18.42316,10.40973Z"/>

</svg>