<svg xmlns:xlink="http://www.w3.org/1999/xlink" id="AsteriskSize300" xmlns="http://www.w3.org/2000/svg" width="10" height="10" viewBox="0 0 10 10">
  <rect id="Frame" width="10" height="10" fill="#f0f" opacity="0"/>
  <path id="Shape" d="M8.266,8.324c.07.071.116.164,0,.258L6.812,9.52c-.116.071-.163.024-.21-.094l-1.8-3.141-2.367,2.6c-.024.045-.094.092-.163,0L1.142,7.718c-.118-.07-.094-.141,0-.21L3.813,5.281.766,4.13c-.047,0-.116-.094-.071-.211l.8-1.593a.124.124,0,0,1,.153-.084.13011.13011,0,0,1,.058.038L4.375,4.018,4.539.596a.124.124,0,0,1,.1-.14.1885.1885,0,0,1,.038,0L6.622.714c.118,0,.14.047.118.164L5.825,4.227l3.094-.938c.07-.047.14-.047.187.094l.3,1.734c.023.118,0,.164-.094.164l-3.234.258Z"/>
</svg>