<svg xmlns:xlink="http://www.w3.org/1999/xlink" xmlns="http://www.w3.org/2000/svg" width="16" height="16" viewBox="0 0 16 16">
  
    <rect id="Frame" width="16" height="16" fill="red" opacity="0"/>
    <path d="M14.57422,1.897a1.13073,1.13073,0,0,0-1.58692.19092L5.83844,11.18622l-2.8526-3.424a1.13057,1.13057,0,1,0-1.7373,1.44726l3.74658,4.49707c.02307.02771.05694.03784.082.06281a1.06414,1.06414,0,0,0,.08838.1037,1.08237,1.08237,0,0,0,.16113.0874,1.08606,1.08606,0,0,0,.11053.05994,1.12408,1.12408,0,0,0,.4256.09387l.01367-.003a1.12318,1.12318,0,0,0,.42194-.09485,1.09553,1.09553,0,0,0,.12885-.07349,1.08733,1.08733,0,0,0,.16015-.09131,1.05774,1.05774,0,0,0,.08313-.10345c.025-.02619.05957-.03693.0824-.066L14.76465,3.48438A1.13031,1.13031,0,0,0,14.57422,1.897Z"/>

</svg>