<svg xmlns:xlink="http://www.w3.org/1999/xlink" xmlns="http://www.w3.org/2000/svg" width="12" height="12" viewBox="0 0 12 12">
  
    <rect id="Frame" width="12" height="12" fill="red" opacity="0"/>
    <path d="M11.19531,1.17822a1.0431,1.0431,0,0,0-1.46289.1753L4.28967,8.2818,2.24707,5.83105A1.0418,1.0418,0,0,0,.64648,7.165L3.5127,10.604c.02142.0257.05285.03516.07617.05829a.97029.97029,0,0,0,.08056.09455,1.00368,1.00368,0,0,0,.148.08038,1.00365,1.00365,0,0,0,.10266.05572,1.03457,1.03457,0,0,0,.3924.08655l.01508-.00342a1.03348,1.03348,0,0,0,.38635-.087.99926.99926,0,0,0,.11719-.06684A.99051.99051,0,0,0,4.98,10.7373a.9737.9737,0,0,0,.0769-.09576c.02271-.0238.0542-.03363.075-.06l6.23925-7.94092A1.04154,1.04154,0,0,0,11.19531,1.17822Z"/>

</svg>