<svg xmlns:xlink="http://www.w3.org/1999/xlink" xmlns="http://www.w3.org/2000/svg" width="10" height="10" viewBox="0 0 10 10">
  <g id="CheckmarkSize50">
    <rect id="Frame" width="10" height="10" fill="red" opacity="0"/>
    <path d="M8.64844,1.61328a.92176.92176,0,0,0-1.294.15527L3.79382,6.30042l-1.162-1.39417a.92152.92152,0,0,0-1.416,1.17969L3.10693,8.355c.01935.02319.04749.03168.06855.05249a.86189.86189,0,0,0,.07013.08228.88323.88323,0,0,0,.12829.06964.89161.89161,0,0,0,.09558.05188.91746.91746,0,0,0,.345.07525l.00049-.00012.00049.00012a.91521.91521,0,0,0,.35614-.08032.89675.89675,0,0,0,.0993-.05664.88.88,0,0,0,.13392-.07642A.86229.86229,0,0,0,4.474,8.3869c.01984-.02087.04742-.02936.06555-.05243L8.80371,2.90723A.92131.92131,0,0,0,8.64844,1.61328Z"/>
  </g>
</svg>