<svg xmlns:xlink="http://www.w3.org/1999/xlink" xmlns="http://www.w3.org/2000/svg" width="14" height="14" viewBox="0 0 14 14">
  
    <rect id="Frame" width="14" height="14" fill="red" opacity="0"/>
    <path d="M12.84375,1.5752a1.0849,1.0849,0,0,0-1.52344.18261L5.0769,9.705,2.65527,6.79932A1.08512,1.08512,0,1,0,.98828,8.189l3.28027,3.936c.02363.02832.058.03888.08381.06415a1.00667,1.00667,0,0,0,.07928.09308,1.03507,1.03507,0,0,0,.14575.07916,1.05563,1.05563,0,0,0,.12134.06592,1.078,1.078,0,0,0,.38843.08447l.01538.00336a1.07858,1.07858,0,0,0,.42224-.09619,1.04209,1.04209,0,0,0,.10962-.06257,1.04649,1.04649,0,0,0,.16248-.09271,1.02159,1.02159,0,0,0,.084-.10467c.02234-.02375.05365-.03327.07416-.05939l7.07226-9.001A1.08467,1.08467,0,0,0,12.84375,1.5752Z"/>

</svg>