<svg xmlns:xlink="http://www.w3.org/1999/xlink" xmlns="http://www.w3.org/2000/svg" width="16" height="16" viewBox="0 0 16 16">
  <g id="CheckmarkSize500">
    <rect id="Frame" width="16" height="16" fill="red" opacity="0"/>
    <path d="M15.39648,1.13428a1.17693,1.17693,0,0,0-1.65332.19824l-8.173,10.4021L2.2251,7.72119A1.17734,1.17734,0,0,0,.4165,9.229l4.27637,5.13086c.02466.02954.06067.04047.08746.067a1.10079,1.10079,0,0,0,.0893.10486,1.13388,1.13388,0,0,0,.16333.08874,1.13759,1.13759,0,0,0,.12329.067,1.16865,1.16865,0,0,0,.43994.09625l.001-.00012.00049.00012.00262-.00043a1.17867,1.17867,0,0,0,.346-.05963c.02716-.00848.05322-.017.07989-.02752a1.16,1.16,0,0,0,.31659-.1811l.00836-.00476c.00653-.00543.00892-.01348.01532-.019A1.16262,1.16262,0,0,0,6.523,14.3335L15.59473,2.7876A1.1766,1.1766,0,0,0,15.39648,1.13428Z"/>
  </g>
</svg>