<svg xmlns:xlink="http://www.w3.org/1999/xlink" xmlns="http://www.w3.org/2000/svg" height="18" viewBox="0 0 18 18" width="18">
  <title>FolderBreadcrumb</title>
  <rect id="ToDelete" fill="#ff13dc" opacity="0" width="18" height="18"/><path d="M16.5,4l-7.16577.00378L7.68188,2.3031A1.00063,1.00063,0,0,0,6.9646,2H2A1,1,0,0,0,1,3V14.5a.5.5,0,0,0,.5.5h15a.5.5,0,0,0,.5-.5V4.5A.50018.50018,0,0,0,16.5,4ZM2,3H6.9646L8.908,5H2ZM12.35352,8.85352l-3,3a.49984.49984,0,0,1-.707,0l-3-3a.5.5,0,0,1,.707-.707L9,10.793l2.64648-2.64649a.5.5,0,0,1,.707.707Z"/>
</svg>