<svg xmlns:xlink="http://www.w3.org/1999/xlink" xmlns="http://www.w3.org/2000/svg" height="14" viewBox="0 0 14 14" width="14">
  <title>HelpSmall</title>
  <rect id="ToDelete" fill="#ff13dc" opacity="0" width="14" height="14"/><path d="M7,.77778A6.22222,6.22222,0,1,0,13.22222,7,6.22222,6.22222,0,0,0,7,.77778Zm.01789,10.45178a1.04611,1.04611,0,1,1-.08067-2.09067q.04032-.00156.08067,0a1.01889,1.01889,0,0,1,1.0867.94623q.00318.046.00219.0921a1.00416,1.00416,0,0,1-1.08889,1.05234ZM8.40544,6.24478l-.07855.07778c-.30722.322-.65489.68755-.65489.91388a1.078,1.078,0,0,0,.13922.52423l.05678.10811L7.82367,8.036a.23956.23956,0,0,1-.22089.147H6.56133a.33753.33753,0,0,1-.25277-.091,1.59915,1.59915,0,0,1-.32823-.98156,2.37848,2.37848,0,0,1,.86411-1.61077c.07778-.08556.15556-.16334.224-.23334.24423-.25277.39434-.41611.39434-.58955,0-.11978,0-.48378-.69456-.48378a2.3007,2.3007,0,0,0-1.22889.357A.23332.23332,0,0,1,5.285,4.54222l-.09178-.06611-.02178-.175v-1.127A.34223.34223,0,0,1,5.327,2.85522,3.2161,3.2161,0,0,1,7,2.42589,1.98491,1.98491,0,0,1,9.13967,4.47611,2.38547,2.38547,0,0,1,8.40544,6.24478Z"/>
</svg>