<svg xmlns:xlink="http://www.w3.org/1999/xlink" xmlns="http://www.w3.org/2000/svg" height="10" viewBox="0 0 9 10" width="9">
  <title>SkipLeft</title>
  <rect id="ToDelete" fill="#ff13dc" opacity="0" width="9" height="10"/><g>
    <path d="M8.69673,8.28266,5.41406,5,8.69673,1.71734A.9999.9999,0,1,0,7.28266.30327L3.29327,4.29266a.99965.99965,0,0,0,0,1.41468L7.28266,9.69673A.9999.9999,0,1,0,8.69673,8.28266Z"/>
    <path d="M1,.01a1,1,0,0,0-1,1V8.99a1,1,0,0,0,2,0V1.01A1,1,0,0,0,1,.01Z"/>
  </g>
</svg>