<svg xmlns:xlink="http://www.w3.org/1999/xlink" xmlns="http://www.w3.org/2000/svg" height="18" viewBox="0 0 18 18"
  width="18">
  <title>StarOutline</title>
  <rect fill="#ff13dc" opacity="0" width="18" height="18" />
  <path
    d="M9.031,2.541l1.777,4.753,5.11.241-3.987,3.2,1.336,4.913L9.001,12.866,4.719,15.674l1.352-4.937-3.987-3.2,5.1-.245ZM9.042.412a.369.369,0,0,0-.349.239L6.486,6.326l-6.1.293a.375.375,0,0,0-.217.667l4.762,3.821L3.318,17a.376.376,0,0,0,.362.475.371.371,0,0,0,.2-.063l5.121-3.351,5.095,3.324a.371.371,0,0,0,.2.062.376.376,0,0,0,.363-.475l-1.595-5.866L17.831,7.28a.375.375,0,0,0-.217-.667l-6.1-.287L9.393.655A.369.369,0,0,0,9.042.412Z" />
</svg>