<svg xmlns:xlink="http://www.w3.org/1999/xlink" xmlns="http://www.w3.org/2000/svg" height="18" viewBox="0 0 18 18"
  width="18">
  <title>SuccessMedium</title>
  <rect fill="#ff13dc" opacity="0" width="18" height="18" />
  <path
    d="M9,1a8,8,0,1,0,8,8A8,8,0,0,0,9,1Zm5.333,4.54L8.009,13.67a.6.6,0,0,1-.437.23H7.535a.6.6,0,0,1-.425-.176l-3.893-3.9a.6.6,0,0,1-.00047-.84853L3.217,8.975l.663-.663a.6.6,0,0,1,.848,0L7.4,10.991l5.256-6.754a.6.6,0,0,1,.84258-.10034L13.499,4.137l.728.566A.6.6,0,0,1,14.333,5.54Z" />
</svg>