<svg xmlns:xlink="http://www.w3.org/1999/xlink" xmlns="http://www.w3.org/2000/svg" height="14" viewBox="0 0 14 14"
  width="14">
  <title>SuccessSmall</title>
  <rect fill="#ff13dc" opacity="0" width="14" height="14" />
  <path
    d="M7,.77778A6.22222,6.22222,0,1,0,13.22219,7,6.22222,6.22222,0,0,0,7,.77778Zm4.14788,3.53111L6.22919,10.63222a.46668.46668,0,0,1-.33989.17889H5.86052A.46666.46666,0,0,1,5.53,10.67422L2.50208,7.64089a.46667.46667,0,0,1-.00037-.66l.00037-.00036.51566-.51567a.46667.46667,0,0,1,.65956,0L5.75552,8.54856l4.088-5.25312a.46667.46667,0,0,1,.65534-.078l.00033.00026.56622.44022A.46665.46665,0,0,1,11.14785,4.30889Z" />
</svg>